<svg width="786" height="762" viewBox="0 0 786 762" fill="none" xmlns="http://www.w3.org/2000/svg">
<g id="undraw_friends_r511 1" clip-path="url(#clip0)">
<path id="Vector" d="M428.134 723.039C625.778 723.039 786 704.824 786 682.355C786 659.886 625.778 641.671 428.134 641.671C230.49 641.671 70.2683 659.886 70.2683 682.355C70.2683 704.824 230.49 723.039 428.134 723.039Z" fill="#3F3D56"/>
<path id="Vector_2" d="M448.821 614.219C448.373 617.132 447.722 620.008 446.873 622.827C445.917 625.586 444.441 628.136 443.567 630.923C440.782 639.806 444.643 649.711 450.811 656.567C456.145 662.48 463.051 666.689 470.691 668.682C476.256 670.118 482.041 670.325 487.776 670.525C503.654 671.077 519.941 671.572 534.987 666.334C539.744 664.638 544.335 662.497 548.704 659.939C550.086 659.263 551.302 658.28 552.263 657.063C553.41 655.387 553.557 653.212 553.547 651.163C553.514 644.255 552.149 637.382 552.473 630.482C552.652 626.66 553.349 622.841 553.006 619.03C552.545 614.718 550.786 610.656 547.97 607.399C545.154 604.142 541.419 601.849 537.274 600.833C533.006 599.892 528.579 600.405 524.234 600.833C512.955 601.946 501.627 602.466 490.295 602.391C478.717 602.315 467.211 600.501 455.691 600.312C452.284 600.256 452.353 601.334 451.268 604.717C450.269 607.833 449.452 611.006 448.821 614.219V614.219Z" fill="#2F2E41"/>
<path id="Vector_3" d="M403.548 608.604C400.436 607.801 397.227 607.451 394.018 607.565C390.645 607.781 387.355 608.718 384.361 610.316C381.368 611.913 378.739 614.134 376.646 616.834C374.574 619.575 373.085 622.724 372.274 626.083C371.463 629.441 371.349 632.934 371.937 636.339C372.714 640.028 373.984 643.591 375.713 646.929C378.241 652.192 381.272 657.444 385.95 660.817C388.766 662.67 391.802 664.153 394.984 665.23L419.625 674.757C423.25 676.158 426.876 677.56 430.537 678.859C448.919 685.382 468.096 689.294 487.528 690.487C493.445 690.849 499.451 690.949 505.224 689.567C506.634 689.377 507.926 688.661 508.847 687.558C509.317 686.717 509.594 685.778 509.657 684.813L511.173 673.919C511.513 672.402 511.468 670.822 511.045 669.327C510.35 667.496 508.609 666.344 506.949 665.366C490.749 655.817 471.834 650.549 458.198 637.443C454.988 634.358 452.302 629.467 448.402 627.372C443.979 624.995 438.771 623.639 434.199 621.449C424.205 616.661 414.379 611.16 403.548 608.604Z" fill="#2F2E41"/>
<path id="Vector_4" opacity="0.1" d="M428.148 623.291C436.858 626.092 473.63 645.496 479.933 652.271C479.088 652.583 450.423 636.097 449.563 635.832C441.745 633.424 433.883 631 426.458 627.476C424.965 626.767 416.755 623.435 417.127 621.501C417.546 619.318 426.602 622.794 428.148 623.291Z" fill="black"/>
<path id="Vector_5" d="M536.806 696.137C537.301 696.174 537.792 696.026 538.187 695.72C538.36 695.49 538.488 695.228 538.562 694.949C538.636 694.669 538.655 694.377 538.618 694.089L538.578 679.248C534.419 677.215 529.767 676.563 525.202 675.937L503.898 673.014C504.388 673.081 500.568 682.431 501.153 683.679C502.186 685.879 510.076 687.829 512.303 688.868C520.044 692.478 528.087 696.448 536.806 696.137Z" fill="#FFB8B8"/>
<path id="Vector_6" d="M469.967 679.197C465.945 679.854 461.456 680.435 458.851 683.649C455.548 687.724 456.954 693.798 458.53 698.846C458.763 699.866 459.233 700.814 459.9 701.612C460.975 702.701 462.623 702.86 464.131 702.958C467.799 703.197 471.703 703.383 474.908 701.537C476.36 700.552 477.758 699.486 479.094 698.343C481.455 696.731 484.053 695.511 486.791 694.732C491.818 693.109 496.996 692.014 502.242 691.464C504.309 691.367 506.355 690.997 508.329 690.363C509.317 690.034 510.219 689.477 510.962 688.737C511.705 687.996 512.271 687.091 512.615 686.092C513.357 683.395 511.83 680.645 510.365 678.28C508.54 675.333 506.607 672.231 503.886 670.062C499.917 666.897 497.953 669.326 493.955 671.351C486.393 675.182 478.306 677.827 469.967 679.197Z" fill="#FFB8B8"/>
<path id="Vector_7" d="M459.456 682.915L433.916 675.168C430.855 674.074 427.653 673.437 424.412 673.278C421.173 673.28 417.784 674.37 415.684 676.9C413.703 679.286 413.136 682.546 412.643 685.639L411.587 692.254C410.882 695.59 410.683 699.016 410.995 702.413C411.478 705.784 413.155 709.151 416.069 710.783C419.603 712.762 423.935 711.795 427.879 710.968C435.845 709.296 443.949 708.404 452.082 708.304C455.139 708.266 458.345 708.306 461.046 706.837C464.257 705.09 466.178 701.397 466.509 697.683C467.011 692.032 465.176 684.65 459.456 682.915Z" fill="#2F2E41"/>
<path id="Vector_8" d="M546.845 676.164C550.156 675.568 553.078 673.637 556.25 672.497C560.716 670.893 565.555 670.893 570.286 670.911C572.023 670.917 573.873 670.957 575.318 671.945C577.402 673.369 577.937 676.218 578.291 678.762L580.429 694.108C580.831 696.995 581.231 699.958 580.604 702.802C579.976 705.646 578.087 708.388 575.338 709.121C571.998 710.012 568.724 707.823 565.571 706.385C557.689 702.79 548.528 703.709 540.31 701.022C538.785 700.523 537.152 699.761 536.529 698.247C536.248 697.395 536.148 696.491 536.235 695.595C536.376 690.663 535.362 683.927 536.809 679.213C538.111 674.973 543.149 676.164 546.845 676.164Z" fill="#2F2E41"/>
<path id="Vector_9" d="M600.893 602.427C605.994 601.114 611.286 600.743 616.516 601.332C620.693 601.804 624.996 602.997 628.046 605.964C631.757 609.575 632.95 615.16 633.049 620.407C633.217 630.846 629.842 641.025 623.492 649.226C621.946 651.293 620.104 653.113 618.029 654.624C615.794 656.059 613.41 657.239 610.92 658.14L555.737 680.478C541.22 686.354 526.651 692.248 511.509 696.122C511.094 696.326 510.643 696.444 510.183 696.468C509.723 696.491 509.263 696.421 508.83 696.26C508.397 696.099 508.001 695.851 507.664 695.53C507.328 695.21 507.058 694.825 506.871 694.396C502.032 687.302 497.976 679.688 494.776 671.691C494.632 671.435 494.543 671.151 494.516 670.858C494.489 670.564 494.525 670.269 494.62 669.99C494.822 669.681 495.104 669.435 495.435 669.278L534.466 646.263C537.331 644.729 539.999 642.843 542.41 640.646C544.099 638.965 545.48 636.992 546.489 634.818C547.298 633.084 547.373 628.991 548.407 627.709C549.419 626.454 552.88 626.354 554.478 625.86C556.734 625.151 558.942 624.295 561.088 623.296C569.819 619.288 577.594 613.463 585.964 608.77C590.654 606.017 595.671 603.886 600.893 602.427V602.427Z" fill="#2F2E41"/>
<path id="Vector_10" opacity="0.1" d="M578.766 619.615C572.06 624.784 563.377 629.535 556.731 634.84C554.463 636.651 516.651 658.468 516.117 661.365C522.317 662.437 561.814 634.08 567.465 631.251C573.116 628.421 578.125 624.431 583.089 620.47C584.354 619.46 589.716 616.426 586.084 615.298C584.038 614.663 580.276 618.582 578.766 619.615Z" fill="black"/>
<path id="Vector_11" d="M391.601 626.15L385.429 645.498C385.429 645.498 355.704 676.744 366.455 685.213C377.206 693.682 401.326 649.037 401.326 649.037L405.771 627.194L391.601 626.15Z" fill="#FFB8B8"/>
<path id="Vector_12" d="M605.615 637.338L611.787 656.686C611.787 656.686 641.511 687.932 630.761 696.401C620.01 704.87 595.89 660.225 595.89 660.225L591.444 638.382L605.615 637.338Z" fill="#FFB8B8"/>
<g id="girl-body">
<path id="Vector_13" d="M548.589 487.582L557.586 484.531C557.586 484.531 571.58 488.6 573.58 502.839C575.579 517.078 590.573 589.291 590.573 589.291C590.573 589.291 596.571 592.343 592.572 597.428C588.574 602.513 612.565 648.282 612.565 648.282L593.572 657.436C593.572 657.436 555.586 616.753 555.586 612.684C555.586 608.616 556.586 604.548 556.586 600.479C556.586 596.411 555.586 596.411 556.586 593.36C557.253 590.701 557.589 587.967 557.586 585.223L550.588 568.95L548.589 487.582Z" fill="#00B0FF"/>
<path id="Vector_14" d="M560.821 391.034C544.753 363.171 512.963 361.872 512.963 361.872C512.963 361.872 481.986 357.807 462.114 400.243C443.593 439.798 418.03 477.988 457.999 487.248L465.219 464.187L469.69 488.965C475.38 489.385 481.09 489.485 486.791 489.264C529.595 487.846 570.359 489.679 569.046 473.916C567.302 452.961 576.282 417.845 560.821 391.034Z" fill="#2F2E41"/>
<path id="Vector_15" d="M511.603 461.138C532.582 461.138 549.589 443.834 549.589 422.489C549.589 401.143 532.582 383.839 511.603 383.839C490.624 383.839 473.617 401.143 473.617 422.489C473.617 443.834 490.624 461.138 511.603 461.138Z" fill="#FFB8B8"/>
<path id="Vector_16" d="M527.597 455.036C527.597 455.036 521.599 470.292 532.595 476.394C543.591 482.497 498.608 531.317 498.608 531.317L478.615 472.326C478.615 472.326 495.609 466.224 492.61 449.95L527.597 455.036Z" fill="#FFB8B8"/>
<path id="Vector_17" d="M502.606 496.736L526.815 469.544L559.585 486.565L554.587 606.582L546.59 615.736C546.59 615.736 512.603 646.248 460.622 620.821C460.622 620.821 442.629 605.565 443.628 582.172C444.628 558.779 441.629 555.727 441.629 555.727L440.629 473.343L489.982 463.49L502.606 496.736Z" fill="#00B0FF"/>
<path id="Vector_18" d="M448.626 476.394L439.63 473.343C439.63 473.343 425.635 477.412 423.636 491.651C421.637 505.89 406.642 578.103 406.642 578.103C406.642 578.103 400.644 581.155 404.643 586.24C408.641 591.325 384.65 637.094 384.65 637.094L403.643 646.248C403.643 646.248 441.629 605.565 441.629 601.496C441.629 597.428 440.629 593.36 440.629 589.291C440.629 585.223 441.629 585.223 440.629 582.172C439.962 579.513 439.626 576.779 439.63 574.035L446.627 557.762L448.626 476.394Z" fill="#00B0FF"/>
<path id="Vector_19" d="M553.717 388.348L522.31 371.465L478.939 378.371L469.966 419.046L492.303 418.164L498.543 403.221V417.917L508.85 417.51L514.833 393.72L518.572 419.046L555.213 418.278L553.717 388.348Z" fill="#2F2E41"/>
</g>
<path id="Vector_20" d="M331.081 650.001V708.667H154.967C154.967 693.108 161.042 678.187 171.855 667.185C182.668 656.183 197.333 650.002 212.625 650.001C229.139 644.763 248.232 643.095 268.944 643.645C288.486 644.153 309.469 646.645 331.081 650.001Z" fill="#FF6584"/>
<path id="Vector_21" d="M305.922 695.869H388.739C390.129 695.869 391.462 696.431 392.445 697.431C393.428 698.432 393.98 699.788 393.98 701.203C393.98 702.617 393.428 703.973 392.445 704.974C391.462 705.974 390.129 706.536 388.739 706.536H305.922V695.869V695.869Z" fill="#3F3D56"/>
<g id="cat-ears">
<path id="Vector_22" d="M320.266 599.796L342.464 572.418C342.975 571.332 343.8 570.43 344.827 569.833C345.855 569.235 347.037 568.97 348.216 569.073C349.395 569.176 350.515 569.642 351.428 570.408C352.341 571.175 353.002 572.206 353.325 573.364L362.078 604.811L320.266 599.796Z" fill="#3F3D56"/>
<path id="Vector_23" d="M293.343 613.74L301.729 579.288C301.729 578.084 302.089 576.909 302.762 575.918C303.435 574.927 304.388 574.169 305.495 573.743C306.602 573.317 307.81 573.244 308.959 573.534C310.108 573.824 311.142 574.463 311.925 575.366L333.178 599.873L293.343 613.74Z" fill="#FF6584"/>
</g>
<path id="Vector_24" d="M154.966 708.669H171.739V744.934C171.739 747.175 171.305 749.394 170.462 751.465C169.619 753.535 168.384 755.417 166.826 757.002C165.269 758.586 163.42 759.843 161.385 760.701C159.35 761.559 157.168 762 154.966 762V708.669V708.669Z" fill="#FF6584"/>
<path id="Vector_25" d="M302.777 698.003H385.594C386.984 698.003 388.317 698.565 389.3 699.565C390.283 700.565 390.835 701.921 390.835 703.336C390.835 704.75 390.283 706.107 389.3 707.107C388.317 708.107 386.984 708.669 385.594 708.669H302.777V698.003Z" fill="#FF6584"/>
<path id="Vector_26" opacity="0.2" d="M331.081 650.001V708.342C322.572 709.261 313.97 708.207 305.919 705.259C297.869 702.31 290.58 697.544 284.6 691.317C278.62 685.091 274.105 677.567 271.393 669.31C268.681 661.053 267.844 652.278 268.944 643.645C288.487 644.153 309.469 646.645 331.081 650.001Z" fill="black"/>
<path id="Vector_27" d="M331.082 708.669C362.346 708.669 387.69 682.882 387.69 651.071C387.69 619.261 362.346 593.474 331.082 593.474C299.818 593.474 274.473 619.261 274.473 651.071C274.473 682.882 299.818 708.669 331.082 708.669Z" fill="#FF6584"/>
<path id="Vector_28" d="M385.594 670.27C389.068 670.27 391.884 663.585 391.884 655.338C391.884 647.091 389.068 640.405 385.594 640.405C382.12 640.405 379.304 647.091 379.304 655.338C379.304 663.585 382.12 670.27 385.594 670.27Z" fill="#3F3D56"/>
<path id="Vector_29" d="M370.393 643.605C371.262 643.605 371.966 641.933 371.966 639.872C371.966 637.81 371.262 636.138 370.393 636.138C369.525 636.138 368.821 637.81 368.821 639.872C368.821 641.933 369.525 643.605 370.393 643.605Z" fill="#3F3D56"/>
<path id="Vector_30" d="M381.925 636.138C382.793 636.138 383.497 634.467 383.497 632.405C383.497 630.344 382.793 628.672 381.925 628.672C381.056 628.672 380.352 630.344 380.352 632.405C380.352 634.467 381.056 636.138 381.925 636.138Z" fill="#3F3D56"/>
<path id="Vector_31" d="M326.332 592.833C326.332 592.833 323.186 587.264 323.186 583.867Z" fill="#3F3D56"/>
<path id="Vector_32" d="M327.716 589.231C327.716 589.231 329.431 583.049 331.818 580.674Z" fill="#3F3D56"/>
</g>
<defs>
<clipPath id="clip0">
<rect width="786" height="762" fill="white"/>
</clipPath>
</defs>
</svg>
